<svg viewBox="-40 -40 192 192" xmlns="http://www.w3.org/2000/svg">

  <g>
    <animateTransform
      attributeName="transform"
      type="rotate"
      dur="7s"
      repeatCount="indefinite"
      calcMode="spline"
      keyTimes="0; 0.15; 0.25; 0.40; 0.50; 0.65; 0.75; 0.90; 1.0"
      values="
        0 55.82 55.87;
        90 55.82 55.87;
        90 55.82 55.87;
        180 55.82 55.87;
        180 55.82 55.87;
        270 55.82 55.87;
        270 55.82 55.87;
        360 55.82 55.87;
        360 55.82 55.87"
      keySplines="
        0.42 0 0.58 1;
        0 0 1 1;
        0.42 0 0.58 1;
        0 0 1 1;
        0.42 0 0.58 1;
        0 0 1 1;
        0.42 0 0.58 1;
        0 0 1 1"/>

    <g>
      <animateTransform attributeName="transform" type="translate" dur="7s" repeatCount="indefinite" calcMode="spline"
        keyTimes="0; 0.075; 0.15; 0.25; 0.325; 0.40; 0.50; 0.575; 0.65; 0.75; 0.825; 0.90; 1.0"
        values="0 0; 10 -10; 0 0; 0 0; 10 -10; 0 0; 0 0; 10 -10; 0 0; 0 0; 10 -10; 0 0; 0 0"
        keySplines="0.33 0 0.67 1; 0.33 0 0.67 1; 0 0 1 1; 0.33 0 0.67 1; 0.33 0 0.67 1; 0 0 1 1; 0.33 0 0.67 1; 0.33 0 0.67 1; 0 0 1 1; 0.33 0 0.67 1; 0.33 0 0.67 1; 0 0 1 1"/>
      <path fill="#363236" d="M 121.3005,80.7186 C 127.6834,81.0300 132.6944,77.6631 138.6291,82.0924 C 146.8919,88.2595 145.4557,100.6677 136.5697,105.3059 C 131.5919,107.9040 126.5004,106.6101 121.3413,105.4285 C 120.9969,108.9778 121.1328,112.6898 121.2030,116.2543 C 121.2200,117.1121 120.8674,119.1513 121.6850,119.7050 C 122.5918,120.3191 124.5855,119.9022 125.6309,119.8810 C 129.1900,119.8105 136.3646,118.6571 138.7174,121.9519 C 140.5534,124.5230 139.3523,127.0165 138.8429,129.7942 C 138.0168,134.2984 138.7922,139.2849 143.1607,141.7086 C 144.2518,142.3139 145.4366,142.7903 146.6852,142.9120 C 148.1706,143.0569 149.7290,142.9748 151.1339,142.4458 C 156.4022,140.4615 157.7376,135.1368 156.8291,130.1135 C 156.3106,127.2466 154.8995,123.9081 157.3163,121.5403 C 160.2928,118.6242 166.3493,119.9230 170.1431,119.8940 C 171.4644,119.8837 174.9045,120.4553 175.1370,118.7013 L 175.1370,76.2150 C 175.1370,70.6922 170.6598,66.2150 165.1370,66.2150 L 121.5679,66.2150 C 120.8213,66.8705 121.1872,69.4753 121.1941,70.3795 C 121.2201,73.8177 121.3729,77.2847 121.3005,80.7183" transform="translate(-63.137,-66.215)"/>
    </g>

    <g>
      <animateTransform attributeName="transform" type="translate" dur="7s" repeatCount="indefinite" calcMode="spline"
        keyTimes="0; 0.075; 0.15; 0.25; 0.325; 0.40; 0.50; 0.575; 0.65; 0.75; 0.825; 0.90; 1.0"
        values="0 0; -10 -10; 0 0; 0 0; -10 -10; 0 0; 0 0; -10 -10; 0 0; 0 0; -10 -10; 0 0; 0 0"
        keySplines="0.33 0 0.67 1; 0.33 0 0.67 1; 0 0 1 1; 0.33 0 0.67 1; 0.33 0 0.67 1; 0 0 1 1; 0.33 0 0.67 1; 0.33 0 0.67 1; 0 0 1 1; 0.33 0 0.67 1; 0.33 0 0.67 1; 0 0 1 1"/>
      <path fill="#363236" d="M 63.1370,119.8621 L 77.5972,119.8385 C 78.0548,113.8585 74.9372,108.9816 78.6026,103.2399 C 84.4303,94.1108 97.6859,95.1695 102.4352,104.6268 C 105.0083,109.7504 103.1000,114.5856 102.5650,119.8568 C 106.0899,119.9333 109.6172,119.8498 113.1425,119.8934 C 113.9841,119.9041 116.0325,120.2865 116.5629,119.4488 C 117.1757,118.4811 116.8361,116.3563 116.8187,115.2497 C 116.7614,111.5890 115.5653,105.3633 118.4524,102.5990 C 121.0959,100.0680 125.1770,101.8935 128.2825,102.3792 C 133.4712,103.1909 138.6257,100.3442 139.7141,94.9787 C 140.0023,93.5581 139.9183,92.0000 139.5643,90.6014 C 138.1077,84.8484 132.2136,83.1600 127.0257,84.1636 C 124.4253,84.6666 121.1749,86.1095 118.8999,84.0886 C 115.7583,81.2979 116.7376,75.3520 116.8314,71.5518 C 116.8589,70.4567 117.4259,67.0893 116.6609,66.2150 L 73.1370,66.2150 C 67.6142,66.2150 63.1370,70.6922 63.1370,76.2150 L 63.1370,119.8621" transform="translate(-63.137,-66.215)"/>
    </g>

    <g>
      <animateTransform attributeName="transform" type="translate" dur="7s" repeatCount="indefinite" calcMode="spline"
        keyTimes="0; 0.075; 0.15; 0.25; 0.325; 0.40; 0.50; 0.575; 0.65; 0.75; 0.825; 0.90; 1.0"
        values="0 0; -10 10; 0 0; 0 0; -10 10; 0 0; 0 0; -10 10; 0 0; 0 0; -10 10; 0 0; 0 0"
        keySplines="0.33 0 0.67 1; 0.33 0 0.67 1; 0 0 1 1; 0.33 0 0.67 1; 0.33 0 0.67 1; 0 0 1 1; 0.33 0 0.67 1; 0.33 0 0.67 1; 0 0 1 1; 0.33 0 0.67 1; 0.33 0 0.67 1; 0 0 1 1"/>
      <path fill="#363236" d="M 116.7174,163.5421 C 111.1052,163.2684 106.3084,166.1437 100.8181,163.0385 C 91.0218,157.4977 91.7941,142.9451 102.0906,138.5205 C 107.4978,136.1969 111.4620,138.9030 116.7357,138.5743 L 116.7121,124.4544 C 113.0110,124.3299 109.3170,124.3198 105.6134,124.3228 C 103.0287,124.3258 100.6748,124.4226 99.0956,122.0194 C 97.5907,119.7292 98.5985,117.6770 98.9842,115.2366 C 99.7430,110.4363 99.7112,105.5794 95.0949,102.6957 C 93.9414,101.9751 92.6929,101.4886 91.3391,101.3174 C 89.8453,101.1284 88.3267,101.2518 86.8997,101.7386 C 81.4858,103.5851 80.2867,109.1623 81.1882,114.1465 C 81.6586,116.7475 83.0182,119.9647 81.1112,122.2717 C 78.4953,125.4363 72.1083,124.4684 68.4268,124.3234 C 67.2787,124.2783 63.5606,123.6909 63.1370,125.1041 L 63.1370,168.2150 C 63.1370,173.7378 67.6142,178.2150 73.1370,178.2150 L 116.4855,178.2150 C 117.1829,177.5208 116.7810,174.7768 116.7937,173.8738 C 116.8416,170.4446 116.8851,166.9669 116.7171,163.5418" transform="translate(-63.137,-66.215)"/>
    </g>

    <g>
      <animateTransform attributeName="transform" type="translate" dur="7s" repeatCount="indefinite" calcMode="spline"
        keyTimes="0; 0.075; 0.15; 0.25; 0.325; 0.40; 0.50; 0.575; 0.65; 0.75; 0.825; 0.90; 1.0"
        values="0 0; 10 10; 0 0; 0 0; 10 10; 0 0; 0 0; 10 10; 0 0; 0 0; 10 10; 0 0; 0 0"
        keySplines="0.33 0 0.67 1; 0.33 0 0.67 1; 0 0 1 1; 0.33 0 0.67 1; 0.33 0 0.67 1; 0 0 1 1; 0.33 0 0.67 1; 0.33 0 0.67 1; 0 0 1 1; 0.33 0 0.67 1; 0.33 0 0.67 1; 0 0 1 1"/>
      <path fill="#363236" d="M 160.1627,124.3628 C 160.4737,129.9752 162.9082,134.8853 159.8317,140.3016 C 154.7315,149.2807 141.7706,149.6185 136.3059,140.8743 C 133.0185,135.6140 134.4285,130.0614 135.7108,124.4627 C 132.2264,124.1246 128.6654,124.3302 125.1675,124.2766 C 124.2444,124.2623 122.0301,123.9145 121.4349,124.8040 C 120.8071,125.7424 121.1807,127.9191 121.1990,129.0106 C 121.2536,132.2595 122.2442,138.2730 120.1021,140.9739 C 117.8588,143.8024 115.0494,142.6186 112.1154,142.1548 C 108.3458,141.5589 104.7118,141.3108 101.5193,143.7752 C 94.9248,148.8656 98.6864,159.9596 106.8636,160.3448 C 110.4117,160.5124 116.5833,157.3322 119.3670,160.2682 C 123.3629,164.4828 120.3742,173.0116 121.3022,178.2150 L 165.1370,178.2150 C 170.6598,178.2150 175.1370,173.7378 175.1370,168.2150 L 175.1370,124.6405 C 174.4306,123.8872 171.4478,124.2493 170.5016,124.2565 C 167.0597,124.2825 163.6009,124.1928 160.1628,124.3629" transform="translate(-63.137,-66.215)"/>
    </g>

  </g>

</svg>
