<?xml version="1.0" encoding="UTF-8"?>
<svg id="Layer_1" xmlns="http://www.w3.org/2000/svg" width="153.4" height="130.8" version="1.1" xmlns:xlink="http://www.w3.org/1999/xlink" viewBox="161.1 58.6 153.4 130.8">
  <!-- Generator: Adobe Illustrator 30.2.1, SVG Export Plug-In . SVG Version: 2.1.1 Build 1)  -->
  <defs>
    <style>
      <![CDATA[
      .st0 {
        fill: url(#linear-gradient2);
      }

      .st1 {
        fill: #00234d;
      }

      .st2 {
        mask: url(#mask);
      }

      .st3 {
        fill: url(#linear-gradient1);
      }

      .st5 {
        fill: url(#New_Gradient_Swatch_13);
      }

      .st6 {
        fill: #fefefc;
      }

      .st8 {
        fill: url(#linear-gradient4);
      }

      .st10 {
        fill: url(#linear-gradient3);
      }

      .st11 {
        fill: url(#New_Gradient_Swatch_11);
      }

      .st13 {
        fill: url(#linear-gradient);
      }

      .st14 {
        fill: url(#New_Gradient_Swatch_1);
      }

      .st15 {
        fill: url(#New_Gradient_Swatch_12);
      }

      /*
       * ── Animation logic (v10 — smoothed transitions) ────────────
       * Sequence per connection (same --d on source, pings, wire):
       *   1. Source node pre-glow fades in gently     (0  - 1.5%)
       *   2. Source node (solid) bursts in            (1.5 - 4%)
       *   3. Ping rings emerge softly, radiate out    (1  - 15%)
       *   4. Source pulse dissipates (gradual fade)   (11  - 20%)
       *   5. Wire begins soft leading edge            (10 - 16%)
       *   6. Wire draws from source to dest           (11 - 40%)
       *   7. Wire holds with decaying glow            (38 - 60%)
       *   8. Wire fades out gradually                 (60 - 72%)
       *   9. Rest                                     (72 - 100%)
       * ────────────────────────────────────────────────────────── */

      /* ── Source node (solid filled) — pulse then dissipate ── */
      .node-anim {
        opacity: 0;
        animation: src-pulse 10s var(--d, 0s) infinite both;
      }

      @keyframes src-pulse {
        /* soft pre-glow — node warms up before the burst */
        0%    { opacity: 0;   transform: scale(0.8);  filter: none; }
        1.5%  { opacity: 0.15; transform: scale(0.9);
                filter: drop-shadow(0 0 1.4px rgba(160,235,255,0.2)); }
        /* main burst — arrives from a visible baseline, not from nothing */
        4%    { opacity: 1;   transform: scale(1.3);
                filter: drop-shadow(0 0 4.2px rgba(255,255,255,0.9))
                        drop-shadow(0 0 9.8px rgba(160,235,255,0.8)); }
        7%    { opacity: 1;   transform: scale(1);
                filter: drop-shadow(0 0 2.1px rgba(255,255,255,0.6))
                        drop-shadow(0 0  8px rgba(160,235,255,0.5)); }
        /* small heartbeat */
        9%    { opacity: 1;   transform: scale(1.08);
                filter: drop-shadow(0 0 2.8px rgba(255,255,255,0.5))
                        drop-shadow(0 0  8px rgba(160,235,255,0.4)); }
        /* hold visible while wire draw gets established */
        12%   { opacity: 0.85; transform: scale(1);
                filter: drop-shadow(0 0 1.4px rgba(255,255,255,0.3))
                        drop-shadow(0 0  5px rgba(160,235,255,0.25)); }
        16%   { opacity: 0.45; transform: scale(0.95);
                filter: drop-shadow(0 0 0.7px rgba(160,235,255,0.15)); }
        /* long gradual fade-out — overlaps well into active wire draw */
        22%   { opacity: 0.1;  transform: scale(0.85);
                filter: drop-shadow(0 0 0.7px rgba(160,235,255,0.05)); }
        26%   { opacity: 0;   transform: scale(0.8); filter: none; }
        100%  { opacity: 0;   transform: scale(0.8); filter: none; }
      }

      /* ── Ping rings — radiate outward then vanish ── */
      .node-ping {
        opacity: 0;
        transform-box: fill-box;
        transform-origin: center;
        animation: ping-ring 10s var(--d, 0s) infinite both;
        fill: none;
        stroke: rgba(200, 240, 255, 0.55);
        stroke-width: 0.84;
      }

      @keyframes ping-ring {
        0%    { opacity: 0;    transform: scale(1);   }
        1%    { opacity: 0;    transform: scale(1);   }
        5%    { opacity: 0.55; transform: scale(1.4); }
        13%   { opacity: 0;    transform: scale(2.8); }
        100%  { opacity: 0;    transform: scale(1);   }
      }

      .node-ping-2 {
        opacity: 0;
        transform-box: fill-box;
        transform-origin: center;
        animation: ping-ring-2 10s var(--d, 0s) infinite both;
        fill: none;
        stroke: rgba(180, 220, 255, 0.3);
        stroke-width: 0.7;
      }

      @keyframes ping-ring-2 {
        0%    { opacity: 0;    transform: scale(1);   }
        2%    { opacity: 0;    transform: scale(1);   }
        7%    { opacity: 0.35; transform: scale(1.5); }
        15%   { opacity: 0;    transform: scale(3.2); }
        100%  { opacity: 0;    transform: scale(1);   }
      }

      /* ── Wire — begins drawing AS the source pulse fires ── */
      .wire-anim {
        opacity: 0;
        animation: wire-glow 10s var(--d, 0s) infinite both;
        animation-timing-function: ease-in-out;
      }

      @keyframes wire-glow {
        0%    { opacity: 0;   filter: none; }
        /* ramp up with the pulse — wire is bright before mask starts revealing */
        3%    { opacity: 0;   filter: none; }
        6%    { opacity: 0.9;
                filter: drop-shadow(0 0 0.7px rgba(255,255,255,0.3)); }
        /* fully bright during the draw phase so the mask reveal reads as a draw */
        40%   { opacity: 1;
                filter: drop-shadow(0 0 2.1px rgba(255,255,255,0.8))
                        drop-shadow(0 0  8px rgba(130,220,255,0.6)); }
        /* gentle glow decay during hold */
        52%   { opacity: 1;
                filter: drop-shadow(0 0 1.4px rgba(255,255,255,0.4))
                        drop-shadow(0 0  5px rgba(130,220,255,0.3)); }
        62%   { opacity: 0.6;
                filter: drop-shadow(0 0 0.7px rgba(130,220,255,0.15)); }
        /* gradual fade-out */
        73%   { opacity: 0;   filter: none; }
        100%  { opacity: 0;   filter: none; }
      }


      @media (prefers-reduced-motion: reduce) {
        .node-anim, .node-ping, .node-ping-2, .wire-anim { animation: none !important; }
        .wire-anim { display: none; }
      }
      ]]>
    </style>
    <linearGradient id="linear-gradient" x1="196.91" y1="95.88" x2="240.53" y2="181.48" gradientUnits="userSpaceOnUse">
      <animate attributeName="y1" values="95.88;91.6;95.88;100.16;95.88" dur="8s" repeatCount="indefinite" calcMode="spline" keySplines="0.4 0 0.6 1;0.4 0 0.6 1;0.4 0 0.6 1;0.4 0 0.6 1"/>
      <animate attributeName="y2" values="181.48;177.2;181.48;185.77;181.48" dur="8s" repeatCount="indefinite" calcMode="spline" keySplines="0.4 0 0.6 1;0.4 0 0.6 1;0.4 0 0.6 1;0.4 0 0.6 1"/>
      <stop offset="0" stop-color="#00234d"/>
      <stop offset=".1333333" stop-color="#00408c"/>
      <stop offset=".1742667" stop-color="#044994"/>
      <stop offset=".2983281" stop-color="#1160a8"/>
      <stop offset=".4152109" stop-color="#186eb4"/>
      <stop offset=".5166667" stop-color="#1b73b9"/>
      <stop offset="1" stop-color="#212668"/>
    </linearGradient>
    <linearGradient id="linear-gradient1" x1="225.77" y1="81.17" x2="269.39" y2="166.78" xlink:href="#linear-gradient">
      <animate attributeName="y1" values="81.17;76.89;81.17;85.45;81.17" dur="8s" repeatCount="indefinite" calcMode="spline" keySplines="0.4 0 0.6 1;0.4 0 0.6 1;0.4 0 0.6 1;0.4 0 0.6 1"/>
      <animate attributeName="y2" values="166.78;162.5;166.78;171.06;166.78" dur="8s" repeatCount="indefinite" calcMode="spline" keySplines="0.4 0 0.6 1;0.4 0 0.6 1;0.4 0 0.6 1;0.4 0 0.6 1"/>
    </linearGradient>
    <linearGradient id="linear-gradient2" x1="205.98" y1="141.97" x2="239.62" y2="141.97" gradientUnits="userSpaceOnUse">
      <stop offset=".1533333" stop-color="#fff"/>
      <stop offset=".2452618" stop-color="#d2d2d2"/>
      <stop offset=".4881137" stop-color="#626262"/>
      <stop offset=".6557401" stop-color="#1b1b1b"/>
      <stop offset=".7333333" stop-color="#000"/>
    </linearGradient>
    <mask id="mask" x="204.43" y="137.29" width="36.42" height="9.36" maskUnits="userSpaceOnUse">
      <polygon class="st0" points="240.85 146.65 236.36 137.29 208.9 137.29 204.43 146.65 240.85 146.65"/>
    </mask>
    <linearGradient id="linear-gradient3" x1="204.74" y1="181.48" x2="255" y2="82.83" gradientUnits="userSpaceOnUse">
      <animate attributeName="y1" values="181.48;176.55;181.48;186.41;181.48" dur="8s" repeatCount="indefinite" calcMode="spline" keySplines="0.4 0 0.6 1;0.4 0 0.6 1;0.4 0 0.6 1;0.4 0 0.6 1"/>
      <animate attributeName="y2" values="82.83;77.9;82.83;87.76;82.83" dur="8s" repeatCount="indefinite" calcMode="spline" keySplines="0.4 0 0.6 1;0.4 0 0.6 1;0.4 0 0.6 1;0.4 0 0.6 1"/>
      <stop offset="0" stop-color="#017db9"/>
      <stop offset=".3566667" stop-color="#0ba8b4"/>
      <stop offset=".67" stop-color="#2fba82"/>
      <stop offset=".9033333" stop-color="#26a9af"/>
      <stop offset="1" stop-color="#6cc9cc"/>
    </linearGradient>
    <linearGradient id="linear-gradient4" x1="177" y1="167.35" x2="227.27" y2="68.7" xlink:href="#linear-gradient3">
      <animate attributeName="y1" values="167.35;162.42;167.35;172.28;167.35" dur="8s" repeatCount="indefinite" calcMode="spline" keySplines="0.4 0 0.6 1;0.4 0 0.6 1;0.4 0 0.6 1;0.4 0 0.6 1"/>
      <animate attributeName="y2" values="68.7;63.77;68.7;73.63;68.7" dur="8s" repeatCount="indefinite" calcMode="spline" keySplines="0.4 0 0.6 1;0.4 0 0.6 1;0.4 0 0.6 1;0.4 0 0.6 1"/>
    </linearGradient>
    <radialGradient id="New_Gradient_Swatch_1" data-name="New Gradient Swatch 1" cx="191.35" cy="158.1" fx="191.35" fy="158.1" r="4.09" gradientUnits="userSpaceOnUse">
      <stop offset="0" stop-color="#fff"/>
      <stop offset=".1077057" stop-color="#fff" stop-opacity=".8658634"/>
      <stop offset=".4169974" stop-color="#fff" stop-opacity=".499626"/>
      <stop offset=".6680194" stop-color="#fff" stop-opacity=".2304428"/>
      <stop offset=".8481977" stop-color="#fff" stop-opacity=".0637252"/>
      <stop offset=".94" stop-color="#fff" stop-opacity="0"/>
    </radialGradient>
    <radialGradient id="New_Gradient_Swatch_11" data-name="New Gradient Swatch 1" cx="225.97" cy="82.28" fx="225.97" fy="82.28" r="4.09" xlink:href="#New_Gradient_Swatch_1"/>
    <radialGradient id="New_Gradient_Swatch_12" data-name="New Gradient Swatch 1" cx="238.68" cy="96.38" fx="238.68" fy="96.38" r="4.09" xlink:href="#New_Gradient_Swatch_1"/>
    <radialGradient id="New_Gradient_Swatch_13" data-name="New Gradient Swatch 1" cx="268.36" cy="155.83" fx="268.36" fy="155.83" r="4.09" xlink:href="#New_Gradient_Swatch_1"/>
    <!-- ── Wire draw masks ──────────────────────────────────────────
         Each mask has a centerline path traced through the wire's geometry.
         SMIL <animate> drives stroke-dashoffset from 1→0 (hidden→drawn).
         Unlike CSS animations, SMIL reliably runs inside <defs>/<mask>.
         pathLength="1" normalises dash values; stroke-width="19.6" ensures
         generous coverage of the filled wire shapes + endpoint circles.
         Mask bounds cover the full circuit area to avoid clipping.
    ─────────────────────────────────────────────────────────────────── -->

    <radialGradient id="i-node-grad" cx="300.02" cy="81.03" fx="300.02" fy="81.03" r="4.09" gradientUnits="userSpaceOnUse">
      <stop offset="0" stop-color="#fff"/>
      <stop offset=".1077057" stop-color="#fff" stop-opacity=".8658634"/>
      <stop offset=".4169974" stop-color="#fff" stop-opacity=".499626"/>
      <stop offset=".6680194" stop-color="#fff" stop-opacity=".2304428"/>
      <stop offset=".8481977" stop-color="#fff" stop-opacity=".0637252"/>
      <stop offset=".94" stop-color="#fff" stop-opacity="0"/>
    </radialGradient>
    <linearGradient id="i-mark-grad" x1="289.52" y1="75.43" x2="310.52" y2="168.81" gradientUnits="userSpaceOnUse">
      <stop offset="0" stop-color="#2fba82"/>
      <stop offset=".45" stop-color="#0ba8b4"/>
      <stop offset=".78" stop-color="#017db9"/>
      <stop offset="1" stop-color="#00408c"/>
      <animate attributeName="y1" values="75.43;70.53;75.43;80.33;75.43" dur="8s" repeatCount="indefinite" calcMode="spline" keySplines="0.4 0 0.6 1;0.4 0 0.6 1;0.4 0 0.6 1;0.4 0 0.6 1"/>
      <animate attributeName="y2" values="168.81;163.91;168.81;173.71;168.81" dur="8s" repeatCount="indefinite" calcMode="spline" keySplines="0.4 0 0.6 1;0.4 0 0.6 1;0.4 0 0.6 1;0.4 0 0.6 1"/>
    </linearGradient>
    <linearGradient id="i-fold-grad" x1="300.02" y1="75.43" x2="300.02" y2="90.83" gradientUnits="userSpaceOnUse"><stop offset="0" stop-color="#00234d"/><stop offset="1" stop-color="#044994"/></linearGradient>
    <clipPath id="i-mark-clip">
      <rect x="289.52" y="75.43" width="21" height="93.38" rx="9.8"/>
    </clipPath>
    <mask id="wire-mask-1" maskUnits="userSpaceOnUse" x="268.1" y="62" width="84" height="140">
      <path fill="none" stroke="white" stroke-width="19.6" stroke-linecap="round" stroke-linejoin="round" pathLength="1" stroke-dasharray="1" stroke-dashoffset="1" d="M 300.02,81.02600000000001 L 300.02,163.206">
        <animate attributeName="stroke-dashoffset" values="1;1;0;0;0" keyTimes="0;0.05;0.40;0.72;1" dur="10s" begin="0s" repeatCount="indefinite" calcMode="spline" keySplines="0 0 1 1; 0.25 0.1 0.25 1; 0 0 1 1; 0 0 1 1"/>
      </path>
    </mask>
    <!-- Wire 2 mask: solid (143,197) → hollow (174.6,105) — draws upward -->
    <mask id="wire-mask-2" maskUnits="userSpaceOnUse" x="147" y="62" width="140" height="140">
      <path fill="none" stroke="white" stroke-width="19.6" stroke-linecap="round" stroke-linejoin="round" pathLength="1" stroke-dasharray="1" stroke-dashoffset="1" d="M 191.38,158.10999999999999 L 191.17,152.16 L 185.43,146.98 L 191.87,134.94 L 200.41,133.05 L 207.89999999999998,118.69999999999999 L 207.89999999999998,101.19999999999999 L 213.21999999999997,93.71">
        <animate attributeName="stroke-dashoffset" values="1;1;0;0;0" keyTimes="0;0.05;0.40;0.72;1" dur="10s" begin="2s" repeatCount="indefinite" calcMode="spline" keySplines="0 0 1 1; 0.25 0.1 0.25 1; 0 0 1 1; 0 0 1 1"/>
      </path>
    </mask>

    <!-- Wire 3 mask: solid (211,109) → hollow (242.6,206) — draws down-right -->
    <mask id="wire-mask-3" maskUnits="userSpaceOnUse" x="196" y="62" width="140" height="140">
      <path fill="none" stroke="white" stroke-width="19.6" stroke-linecap="round" stroke-linejoin="round" pathLength="1" stroke-dasharray="1" stroke-dashoffset="1" d="M 238.7,96.36999999999999 L 238.91,109.25 L 236.18,113.1 L 245.48999999999998,132.76999999999998 L 254.66,136.89999999999998 L 259.49,147.89 L 254.38,154.26 L 260.82,164.2">
        <animate attributeName="stroke-dashoffset" values="1;1;0;0;0" keyTimes="0;0.05;0.40;0.72;1" dur="10s" begin="4s" repeatCount="indefinite" calcMode="spline" keySplines="0 0 1 1; 0.25 0.1 0.25 1; 0 0 1 1; 0 0 1 1"/>
      </path>
    </mask>

    <!-- Wire 4 mask: solid (192,89) → hollow (123.7,198) — draws down-left -->
    <mask id="wire-mask-4" maskUnits="userSpaceOnUse" x="147" y="62" width="140" height="140">
      <path fill="none" stroke="white" stroke-width="19.6" stroke-linecap="round" stroke-linejoin="round" pathLength="1" stroke-dasharray="1" stroke-dashoffset="1" d="M 225.96,82.3 L 210.0,82.3 L 197.26,106.03 L 202.16,117.43999999999998 L 196.28,128.98999999999998 L 186.69,128.98999999999998 L 177.31,147.12 L 177.31,156.78 L 177.58999999999997,158.81">
        <animate attributeName="stroke-dashoffset" values="1;1;0;0;0" keyTimes="0;0.05;0.40;0.72;1" dur="10s" begin="6s" repeatCount="indefinite" calcMode="spline" keySplines="0 0 1 1; 0.25 0.1 0.25 1; 0 0 1 1; 0 0 1 1"/>
      </path>
    </mask>

    <!-- Wire 5 mask: solid (254,191) → hollow (221,114.8) — draws up-left -->
    <mask id="wire-mask-5" maskUnits="userSpaceOnUse" x="210" y="62" width="140" height="140">
      <path fill="none" stroke="white" stroke-width="19.6" stroke-linecap="round" stroke-linejoin="round" pathLength="1" stroke-dasharray="1" stroke-dashoffset="1" d="M 268.79999999999995,153.91 L 268.59,148.1 L 257.39,120.31 L 251.43999999999997,114.63999999999999 L 245.7,114.78 L 245.7,100.36">
        <animate attributeName="stroke-dashoffset" values="1;1;0;0;0" keyTimes="0;0.05;0.40;0.72;1" dur="10s" begin="8s" repeatCount="indefinite" calcMode="spline" keySplines="0 0 1 1; 0.25 0.1 0.25 1; 0 0 1 1; 0 0 1 1"/>
      </path>
    </mask>
  </defs>
<!-- Marks geometry carries the owner's placement (2026-08-25) baked into
     the coordinates themselves: base art x0.7 then +91/+20. There is no
     wrapper transform; what you see is what the numbers say. -->
<g>
  <g>
    <g>
      <polygon class="st13" points="208.9 137.29 204.43 146.65 240.85 146.65 236.36 137.29 208.9 137.29"/>
      <path class="st3" d="M 276.15475783,146.68578692 C 270.14477245,134.12381183 242.73873000999998,77.65153401 242.73873000999998,77.65153401 L 242.07927568999997,76.68608603000001 L 239.72805499999998,75.58434651000002 L 212.66906451,87.84831746 C 212.66906451,87.84831746 225.86584188,115.40214439 236.36225298,137.28932089 L 240.85192586,146.6485738 C 244.91939409,155.12470902 248.02141441,161.57885945 248.83472005,163.24584554000003 C 252.10921953,169.95724079000001 260.53344443,171.69626059000004 268.92904381,166.99403278000003 C 277.32460042,162.29176227000002 279.45946371,153.59333085000003 276.1547579,146.68578692000003 L 276.15475783,146.68578692"/>
    </g>
    <g>
      <g class="st2">
        <polygon class="st10" points="240.85 146.65 236.36 137.29 208.9 137.29 204.43 146.65 240.85 146.65"/>
      </g>
      <path class="st8" d="M 242.73873000999998,77.65153401 C 241.74089673999998,75.19820152 238.76461503999997,74.58484702999999 234.53240068999997,74.58484702999999 L 212.27040121,74.58484702999999 C 205.66406573999998,74.58484702999999 203.14476644,76.59875697000001 200.89279504,81.14982503 C 192.78080164,97.54347125 175.13258994,134.12381183 169.12264733,146.68578692 C 165.81794151999998,153.59333085 167.95276210999998,162.29176227 176.34836142,166.99403278 C 184.74391802999997,171.69626059 193.15669275,169.82094925 196.44268518,163.24584554 C 197.88579433,160.35826007 200.78085657,154.31588947 204.43107629,146.6485738 L 208.89592611999998,137.28932089 L 208.88045983,137.28932089 C 217.9866976,118.11729332999998 229.49102505,93.84121296999999 235.91659266,80.87630206 C 238.30011316999997,76.06709185 240.85777918999997,74.99376421 242.73873007999998,77.65153400999998 L 242.73873000999998,77.65153400999999"/>
    </g>
  </g>
  <g clip-path="url(#i-mark-clip)">
    <rect x="289.52" y="75.43" width="21" height="93.38" fill="url(#i-mark-grad)"/>
    <polygon points="289.52 75.43 310.52 75.43 310.52 83.83 289.52 90.83" fill="url(#i-fold-grad)"/>
  </g>
  <g>
    <!-- Solid nodes — pulse in, then wire draws away from them toward hollow endpoint -->
    <g>
      <!-- I source node: identical transient pulse/ring language used by the A -->
      <g class="node-anim" style="--d: 0s; transform-origin: 300.02px 81.03px;">
        <circle fill="url(#i-node-grad)" cx="300.02" cy="81.03" r="4.09"/>
      </g>
      <circle class="node-ping" style="--d: 0s;" cx="300.02" cy="81.03" r="4.09"/>
      <circle class="node-ping-2" style="--d: 0s;" cx="300.02" cy="81.03" r="4.09"/>
      <g class="node-anim" style="--d: 2s; transform-origin: 191.35px 158.1px;">
        <path class="st14" d="M 191.34675,154.00233357 C 189.08952341999998,154.00233357 187.25339065999998,155.8384664 187.25339065999998,158.09569290999997 C 187.25339065999998,160.35223586999996 189.08952348999998,162.18836869999998 191.34675,162.18836869999998 C 193.60363476999999,162.18836869999998 195.43976759999998,160.35223587 195.43976759999998,158.09569290999997 C 195.43976759999998,155.83846632999996 193.60363476999999,154.00233356999996 191.34675,154.00233356999996"/>
      </g>
      <circle class="node-ping" style="--d: 2s;" cx="191.35" cy="158.1" r="4.09"/>
      <circle class="node-ping-2" style="--d: 2s;" cx="191.35" cy="158.1" r="4.09"/>
      <!-- Solid node: top-center (192, 89) — pulses, then wire-4 draws away toward hollow (123.7,198) -->
      <g class="node-anim" style="--d: 6s; transform-origin: 225.97px 82.28px;">
        <circle class="st11" cx="225.97" cy="82.28" r="4.09"/>
      </g>
      <circle class="node-ping" style="--d: 6s;" cx="225.97" cy="82.28" r="4.09"/>
      <circle class="node-ping-2" style="--d: 6s;" cx="225.97" cy="82.28" r="4.09"/>
      <!-- Solid node: upper-right (210, 109) — pulses, then wire-3 draws away toward hollow (242.6,206) -->
      <g class="node-anim" style="--d: 4s; transform-origin: 238.68px 96.38px;">
        <circle class="st15" cx="238.68" cy="96.38" r="4.09"/>
      </g>
      <circle class="node-ping" style="--d: 4s;" cx="238.68" cy="96.38" r="4.09"/>
      <circle class="node-ping-2" style="--d: 4s;" cx="238.68" cy="96.38" r="4.09"/>
      <!-- Solid node: far-right (253, 194) — pulses, then wire-5 draws away toward hollow (221,114.8) -->
      <g class="node-anim" style="--d: 8s; transform-origin: 268.36px 155.83px;">
        <circle class="st5" cx="268.36" cy="155.83" r="4.09"/>
      </g>
      <circle class="node-ping" style="--d: 8s;" cx="268.36" cy="155.83" r="4.09"/>
      <circle class="node-ping-2" style="--d: 8s;" cx="268.36" cy="155.83" r="4.09"/>
    </g>
    <!-- Connection wires — solid node pulses, then wire draws away toward hollow endpoint -->
    <g>
      <!-- Wire 2: solid (143,197) draws upward to hollow (174.5,105) -->
      <g class="wire-anim" style="--d: 0s;" mask="url(#wire-mask-1)">
        <rect class="st6" x="299.58" y="81.03" width="0.88" height="80.09" rx="0.44"/>
        <circle cx="300.02" cy="163.21" r="1.56" fill="none" stroke="#fefefc" stroke-width="0.74"/>
      </g>
      <g class="wire-anim" style="--d: 2s;" mask="url(#wire-mask-2)">
        <path class="st6" d="M 213.18825388,91.62645461999999 C 212.04118355,91.62645461999999 211.10773627999998,92.55990188999999 211.10773627999998,93.70697222 C 211.10773627999998,94.28012283999999 211.34084173999997,94.79986772999999 211.71716012999997,95.17657063 L 207.60705273,102.05194291 L 207.60705273,119.64969679000001 L 200.2741426,133.48153271 L 191.71930862,135.29647409 L 185.01872269999998,147.84862251 L 190.90925006999998,153.08084909000002 L 190.90925006999998,156.15415842000002 C 190.02049276,156.35457955 189.35339073,157.14720649000003 189.35339073,158.09569284 C 189.35339073,159.19422797 190.24753139,160.08836863 191.34675006999998,160.08836863000002 C 192.44562700999998,160.08836863000002 193.33976767,159.19422797000001 193.33976767,158.09569284 C 193.33976767,157.14724926 192.67275103999998,156.35462225 191.78425006999998,156.15420112 L 191.78425006999998,152.68709909 L 186.11520710999997,147.65174751 L 192.29967974,136.06756784 L 200.85588088999998,134.25262646 L 208.48205272999996,119.86707962000001 L 208.48205272999996,102.29325146000002 L 212.45539867999997,95.64743844000002 C 212.68418899,95.73421212000001 212.92947094999997,95.78748968000002 213.18825387999996,95.78748968000002 C 214.33532420999995,95.78748968000002 215.26877147999997,94.85404241000002 215.26877147999997,93.70697208000003 C 215.26877147999997,92.55990175000004 214.33532420999998,91.62645448000004 213.18825387999996,91.62645448000002 L 213.18825388,91.62645461999999 M 213.18825388,94.73748982 C 212.6201875,94.73748982 212.15773628,94.27503866999999 212.15773628,93.70697222 C 212.15773628,93.13890577000001 212.62018743,92.67645462 213.18825388,92.67645462 C 213.75632033,92.67645462 214.21877148,93.13890577000001 214.21877148,93.70697222 C 214.21877148,94.27503866999999 213.75632033,94.73748982 213.18825388,94.73748982"/>
      </g>
      <!-- Wire 3: solid (211,109) draws down-right to hollow (242.6,206) -->
      <g class="wire-anim" style="--d: 4s;" mask="url(#wire-mask-3)">
        <path class="st6" d="M 260.96961989,162.13543295 L 254.6882051,154.27166949 L 259.76901566,147.93338824 L 254.77194533,136.59666949 L 245.58786329,132.44588824 L 236.43283398,113.15487257999999 L 239.11354684,109.35033155999999 L 239.11354684,98.31926465999999 C 240.00204781000002,98.11884352999998 240.66906444,97.32625928999998 240.66906444,96.37811474999998 C 240.66906444,95.27923780999998 239.77492378,94.38509714999998 238.67604684,94.38509714999999 C 237.5771699,94.38509714999999 236.68302924,95.27923780999998 236.68302924,96.37811474999998 C 236.68302924,97.32625928999998 237.35004587,98.11884352999999 238.23854684,98.31926465999999 L 238.23854684,109.07279247999998 L 235.42316595,113.06873974999998 L 244.86633003,132.96541942 L 244.93503117999998,133.11102487999997 L 254.10612493,137.25565375999997 L 258.75387880999995,147.80077092999997 L 253.56779482999997,154.27030218 L 259.98058778999996,162.29859804999998 C 259.24948427,162.62142516999998 258.73644713,163.35099065 258.73644713,164.20018493999999 C 258.73644713,165.34725526999998 259.6698944,166.28104427999997 260.81696473,166.28104427999997 C 261.96403506,166.28104427999997 262.89748233,165.34725519999998 262.89748233,164.20018493999999 C 262.89748233,163.10536681 262.04440002999996,162.21519955999997 260.96961975,162.13543273999997 L 260.96961989,162.13543295 M 260.81696487,165.23104449 C 260.24889849,165.23104449 259.78644727,164.76893515 259.78644726999994,164.20018515 C 259.78644726999994,163.63211877 260.24889841999993,163.17000936 260.81696487,163.17000936 C 261.38503132,163.17000936 261.84748247,163.63211869999998 261.84748247,164.20018515 C 261.84748247,164.76893515 261.38503132,165.23104449 260.81696487,165.23104449"/>
      </g>
      <!-- Wire 4: solid (192,89) draws down-left to hollow (123.7,198) -->
      <g class="wire-anim" style="--d: 6s;" mask="url(#wire-mask-4)">
        <path class="st6" d="M 225.96872262999997,80.28426712 C 225.02057808999996,80.28426712 224.22799385,80.95128374999999 224.02757272,81.83978472 L 209.60690624999998,81.83978472 L 197.02228714,106.00414018 L 201.89733599,117.41400347 L 196.25221882,128.50360311 L 186.66139849,128.50360311 L 177.11842974,146.98319298 L 177.11842974,156.76234334 C 176.18075272,156.96417441 175.4750704,157.79820152 175.4750704,158.79500936 C 175.4750704,159.94207968999999 176.40851766999998,160.87518515 177.55592974,160.87518515 C 178.70300007,160.87518515 179.63644734,159.94207969 179.63644734,158.79500936 C 179.63644734,157.79820152 178.93085041999998,156.96425988 177.99342974,156.76238604 L 177.99342974,147.19579061 L 187.19460157999998,129.37860311 L 196.78883987,129.37860311 L 202.86257032999998,117.44613242 L 197.98957227,106.04105426 L 210.13805861999998,82.71478472000001 L 224.02757279,82.71478472000001 C 224.22799392,83.60328569 225.02057815999999,84.27030232 225.96872269999997,84.27030232 C 227.06759963999997,84.27030232 227.96174029999997,83.37616166000001 227.96174029999997,82.27728472000001 C 227.96174029999997,81.17840778000001 227.06759963999997,80.28426712000001 225.96872269999997,80.28426712000001 L 225.96872262999997,80.28426712000001 M 178.58644727,158.79500936 C 178.58644727,159.36307574 178.12399612,159.82518515 177.55592967,159.82518515 C 176.98752148,159.82518515 176.52507033,159.36307581000003 176.52507033,158.79500936 C 176.52507033,158.22625936 176.98752148,157.76415002000002 177.55592967,157.76415002 C 178.12399605000002,157.76415002 178.58644727,158.22625935999997 178.58644727,158.79500936"/>
      </g>
      <!-- Wire 5: solid (254,191) draws up-left to hollow (221,114.8) -->
      <g class="wire-anim" style="--d: 8s;" mask="url(#wire-mask-5)">
        <path class="st6" d="M 268.7927949,153.88535355999997 L 268.7927949,149.42909132999998 L 257.60680855,125.52621044 L 251.87043161,122.86544995999999 L 251.87043161,116.69964793999999 C 252.80785229,116.49785963999999 253.51344921,115.66413157 253.51344921,114.66732373 C 253.51344921,113.52025340000002 252.58000194000002,112.58680613 251.43293161,112.58680613 C 250.28586127999998,112.58680613 249.35241401,113.52025339999999 249.35241401,114.66732373 C 249.35241401,115.66413157000001 250.05801092999997,116.49785964000002 250.99543161,116.69964793999999 L 250.99543161,122.45956616 L 246.14533398,120.20990182 L 246.14533398,102.41083766999999 C 247.08275466,102.20904125 247.78835158,101.37531317999999 247.78835158,100.37850534 C 247.78835158,99.23143501 246.85490431000002,98.29798774000001 245.70783398,98.29798774 C 244.56076364999998,98.29798774 243.62731638,99.23143501 243.62731638,100.37850534 C 243.62731638,101.37531318 244.33291329999997,102.20904125000001 245.27033398,102.41083766999999 L 245.27033398,120.76839794 L 256.94919138,126.18587839999999 L 267.9177949,149.62323191999997 L 267.9177949,153.88535349 C 267.02929393,154.08577462 266.36227729999996,154.87840156000001 266.36227729999996,155.82684521 C 266.36227729999996,156.92606396 267.25641795999996,157.82020454999997 268.3552949,157.82020454999997 C 269.45417183999996,157.82020454999997 270.34831249999996,156.92606388999997 270.34831249999996,155.82684521 C 270.34831249999996,154.87840162999998 269.68129587,154.08577462 268.7927949,153.88535349 L 268.7927949,153.88535356 M 250.40241408,114.66732379999999 C 250.40241408,114.09925741999999 250.86486523,113.63680619999998 251.43293168,113.6368062 C 252.00099813,113.6368062 252.46344928,114.09925734999999 252.46344928000002,114.66732379999999 C 252.46344928000002,115.23539025000001 252.00099813000003,115.6978414 251.43293168,115.6978414 C 250.86486523,115.6978414 250.40241408,115.23539025000001 250.40241408,114.66732379999999 M 244.67731637999998,100.37850540999999 C 244.67731637999998,99.81043902999998 245.13976752999997,99.34798780999999 245.70783398,99.34798780999999 C 246.27590043,99.34798780999999 246.73835158,99.81043896 246.73835158,100.37850540999999 C 246.73835158,100.94657185999998 246.27590043,101.40902300999998 245.70783398,101.40902300999998 C 245.13976753,101.40902300999998 244.67731638,100.94657185999998 244.67731638,100.37850540999999"/>
      </g>
    </g>

  </g>
  </g>

<!-- Optically center the wordmark against the A/I monogram and close the
     reading gap so the full name resolves immediately as AIAGENT. -->
<g transform="translate(-10 -10)">
    <g>
      <path class="st1" d="M410.57 129.90Q415.92 129.90 420.67 131.94Q425.43 133.99 428.96 137.51Q432.49 141.04 434.53 145.80Q436.57 150.55 436.57 155.90V181.90H426.25V166.52H365.93V181.90H355.60V155.90Q355.60 150.55 357.64 145.80Q359.69 141.04 363.21 137.51Q366.74 133.99 371.50 131.94Q376.25 129.90 381.60 129.90ZM426.25 156.20V155.90Q426.25 152.63 425.02 149.81Q423.79 146.99 421.68 144.87Q419.56 142.75 416.74 141.53Q413.91 140.30 410.65 140.30H381.53Q378.33 140.30 375.47 141.53Q372.61 142.75 370.49 144.87Q368.38 146.99 367.15 149.81Q365.93 152.63 365.93 155.90V156.20Z"/>
        <path class="st1" d="M467.25 140.30Q464.06 140.30 461.20 141.53Q458.34 142.75 456.22 144.87Q454.10 146.99 452.88 149.81Q451.65 152.63 451.65 155.90Q451.65 159.09 452.88 161.95Q454.10 164.81 456.22 166.93Q458.34 169.05 461.20 170.27Q464.06 171.50 467.25 171.50H507.07V161.32H481.51V151.00H517.39V181.90H467.33Q461.98 181.90 457.22 179.86Q452.47 177.81 448.94 174.29Q445.41 170.76 443.37 166.00Q441.33 161.25 441.33 155.90Q441.33 150.55 443.37 145.80Q445.41 141.04 448.94 137.51Q452.47 133.99 457.22 131.94Q461.98 129.90 467.33 129.90H504.69Q506.99 129.90 509.11 130.68Q511.23 131.46 512.90 132.83Q514.57 134.21 515.76 136.10Q516.95 138.00 517.39 140.23H502.24Z"/>
        <path class="st1" d="M584.77 129.90Q587.37 129.97 589.64 131.01Q591.90 132.05 593.61 133.84Q595.32 135.62 596.29 137.96Q597.25 140.30 597.25 142.90V161.32H533.22V168.45Q533.37 169.57 534.03 170.31Q534.70 171.05 535.89 171.05H597.18L596.36 173.13Q595.69 174.92 594.54 176.40Q593.39 177.89 591.83 178.97Q590.27 180.04 588.49 180.67Q586.70 181.31 584.77 181.38H535.37Q532.77 181.31 530.47 180.27Q528.17 179.23 526.49 177.44Q524.82 175.66 523.86 173.36Q522.89 171.05 522.89 168.45V142.90Q522.89 140.30 523.86 137.96Q524.82 135.62 526.53 133.84Q528.24 132.05 530.51 131.01Q532.77 129.97 535.37 129.90ZM586.93 151.00V142.90Q586.85 142.31 586.70 141.86Q586.55 141.41 586.11 141.04Q585.37 140.30 584.25 140.23H535.89Q535.30 140.30 534.85 140.45Q534.41 140.60 534.03 141.04Q533.59 141.41 533.44 141.86Q533.29 142.31 533.22 142.90V151.00Z"/>
        <path class="st1" d="M673.47 129.90V176.70Q673.47 177.07 673.43 177.37Q673.39 177.67 673.32 178.04Q672.87 179.75 671.46 180.82Q670.05 181.90 668.27 181.90Q666.86 181.90 665.74 181.23L663.07 179.82L613.07 143.94V181.90H602.75V135.10Q602.75 132.95 604.27 131.42Q605.79 129.90 607.95 129.90Q609.29 129.90 610.47 130.57L613.07 132.05L663.07 167.86V129.90Z"/>
        <path class="st1" d="M739.73 129.90Q742.03 129.90 744.08 130.68Q746.12 131.46 747.79 132.87Q749.46 134.28 750.65 136.14Q751.84 138.00 752.29 140.23H720.27V181.90H709.94V140.23H677.93L678.74 138.15Q679.41 136.36 680.56 134.88Q681.71 133.39 683.27 132.31Q684.83 131.24 686.65 130.61Q688.47 129.97 690.33 129.90Z"/>
      
      
      
      
      
      
    </g>
  </g>
</svg>
