<?xml version="1.0" encoding="UTF-8"?>
<svg id="Layer_1" xmlns="http://www.w3.org/2000/svg" width="785" height="170" version="1.1" xmlns:xlink="http://www.w3.org/1999/xlink" viewBox="103 60 785 170">
  <!-- Generator: Adobe Illustrator 30.2.1, SVG Export Plug-In . SVG Version: 2.1.1 Build 1)  -->
  <defs>
    <style>
      <![CDATA[
      .st0 {
        fill: url(#linear-gradient2);
      }

      .st1 {
        fill: #18222e;
      }

      .st2 {
        mask: url(#mask);
      }

      .st3 {
        fill: url(#linear-gradient1);
      }

      .st4 {
        fill: url(#linear-gradient8);
      }

      .st5 {
        fill: url(#New_Gradient_Swatch_13);
      }

      .st6 {
        fill: #fefefc;
      }

      .st7 {
        fill: url(#linear-gradient7);
      }

      .st8 {
        fill: url(#linear-gradient4);
      }

      .st9 {
        fill: url(#linear-gradient5);
      }

      .st10 {
        fill: url(#linear-gradient3);
      }

      .st11 {
        fill: url(#New_Gradient_Swatch_11);
      }

      .st12 {
        fill: url(#linear-gradient6);
      }

      .st13 {
        fill: url(#linear-gradient);
      }

      .st14 {
        fill: url(#New_Gradient_Swatch_1);
      }

      .st15 {
        fill: url(#New_Gradient_Swatch_12);
      }

      /*
       * ── Animation logic (v10 — smoothed transitions) ────────────
       * Sequence per connection (same --d on source, pings, wire):
       *   1. Source node pre-glow fades in gently     (0  - 1.5%)
       *   2. Source node (solid) bursts in            (1.5 - 4%)
       *   3. Ping rings emerge softly, radiate out    (1  - 15%)
       *   4. Source pulse dissipates (gradual fade)   (11  - 20%)
       *   5. Wire begins soft leading edge            (10 - 16%)
       *   6. Wire draws from source to dest           (11 - 40%)
       *   7. Wire holds with decaying glow            (38 - 60%)
       *   8. Wire fades out gradually                 (60 - 72%)
       *   9. Rest                                     (72 - 100%)
       * ────────────────────────────────────────────────────────── */

      /* ── Source node (solid filled) — pulse then dissipate ── */
      .node-anim {
        opacity: 0;
        animation: src-pulse 10s var(--d, 0s) infinite both;
      }

      @keyframes src-pulse {
        /* soft pre-glow — node warms up before the burst */
        0%    { opacity: 0;   transform: scale(0.8);  filter: none; }
        1.5%  { opacity: 0.15; transform: scale(0.9);
                filter: drop-shadow(0 0 2px rgba(160,235,255,0.2)); }
        /* main burst — arrives from a visible baseline, not from nothing */
        4%    { opacity: 1;   transform: scale(1.3);
                filter: drop-shadow(0 0 6px rgba(255,255,255,0.9))
                        drop-shadow(0 0 14px rgba(160,235,255,0.8)); }
        7%    { opacity: 1;   transform: scale(1);
                filter: drop-shadow(0 0 3px rgba(255,255,255,0.6))
                        drop-shadow(0 0  8px rgba(160,235,255,0.5)); }
        /* small heartbeat */
        9%    { opacity: 1;   transform: scale(1.08);
                filter: drop-shadow(0 0 4px rgba(255,255,255,0.5))
                        drop-shadow(0 0  8px rgba(160,235,255,0.4)); }
        /* hold visible while wire draw gets established */
        12%   { opacity: 0.85; transform: scale(1);
                filter: drop-shadow(0 0 2px rgba(255,255,255,0.3))
                        drop-shadow(0 0  5px rgba(160,235,255,0.25)); }
        16%   { opacity: 0.45; transform: scale(0.95);
                filter: drop-shadow(0 0 1px rgba(160,235,255,0.15)); }
        /* long gradual fade-out — overlaps well into active wire draw */
        22%   { opacity: 0.1;  transform: scale(0.85);
                filter: drop-shadow(0 0 1px rgba(160,235,255,0.05)); }
        26%   { opacity: 0;   transform: scale(0.8); filter: none; }
        100%  { opacity: 0;   transform: scale(0.8); filter: none; }
      }

      /* ── Ping rings — radiate outward then vanish ── */
      .node-ping {
        opacity: 0;
        transform-box: fill-box;
        transform-origin: center;
        animation: ping-ring 10s var(--d, 0s) infinite both;
        fill: none;
        stroke: rgba(200, 240, 255, 0.55);
        stroke-width: 1.2;
      }

      @keyframes ping-ring {
        0%    { opacity: 0;    transform: scale(1);   }
        1%    { opacity: 0;    transform: scale(1);   }
        5%    { opacity: 0.55; transform: scale(1.4); }
        13%   { opacity: 0;    transform: scale(2.8); }
        100%  { opacity: 0;    transform: scale(1);   }
      }

      .node-ping-2 {
        opacity: 0;
        transform-box: fill-box;
        transform-origin: center;
        animation: ping-ring-2 10s var(--d, 0s) infinite both;
        fill: none;
        stroke: rgba(180, 220, 255, 0.3);
        stroke-width: 1;
      }

      @keyframes ping-ring-2 {
        0%    { opacity: 0;    transform: scale(1);   }
        2%    { opacity: 0;    transform: scale(1);   }
        7%    { opacity: 0.35; transform: scale(1.5); }
        15%   { opacity: 0;    transform: scale(3.2); }
        100%  { opacity: 0;    transform: scale(1);   }
      }

      /* ── Wire — begins drawing AS the source pulse fires ── */
      .wire-anim {
        opacity: 0;
        animation: wire-glow 10s var(--d, 0s) infinite both;
        animation-timing-function: ease-in-out;
      }

      @keyframes wire-glow {
        0%    { opacity: 0;   filter: none; }
        /* ramp up with the pulse — wire is bright before mask starts revealing */
        3%    { opacity: 0;   filter: none; }
        6%    { opacity: 0.9;
                filter: drop-shadow(0 0 1px rgba(255,255,255,0.3)); }
        /* fully bright during the draw phase so the mask reveal reads as a draw */
        40%   { opacity: 1;
                filter: drop-shadow(0 0 3px rgba(255,255,255,0.8))
                        drop-shadow(0 0  8px rgba(130,220,255,0.6)); }
        /* gentle glow decay during hold */
        52%   { opacity: 1;
                filter: drop-shadow(0 0 2px rgba(255,255,255,0.4))
                        drop-shadow(0 0  5px rgba(130,220,255,0.3)); }
        62%   { opacity: 0.6;
                filter: drop-shadow(0 0 1px rgba(130,220,255,0.15)); }
        /* gradual fade-out */
        73%   { opacity: 0;   filter: none; }
        100%  { opacity: 0;   filter: none; }
      }


      ]]>
    </style>
    <linearGradient id="linear-gradient" x1="151.3024208" y1="108.3958549" x2="213.615617" y2="230.6923885" gradientUnits="userSpaceOnUse">
      <animate attributeName="y1" values="108.3959;102.2810;108.3959;114.5107;108.3959" dur="8s" repeatCount="indefinite" calcMode="spline" keySplines="0.4 0 0.6 1;0.4 0 0.6 1;0.4 0 0.6 1;0.4 0 0.6 1"/>
      <animate attributeName="y2" values="230.6924;224.5776;230.6924;236.8072;230.6924" dur="8s" repeatCount="indefinite" calcMode="spline" keySplines="0.4 0 0.6 1;0.4 0 0.6 1;0.4 0 0.6 1;0.4 0 0.6 1"/>
      <stop offset="0" stop-color="#00234d"/>
      <stop offset=".1333333" stop-color="#00408c"/>
      <stop offset=".1742667" stop-color="#044994"/>
      <stop offset=".2983281" stop-color="#1160a8"/>
      <stop offset=".4152109" stop-color="#186eb4"/>
      <stop offset=".5166667" stop-color="#1b73b9"/>
      <stop offset="1" stop-color="#212668"/>
    </linearGradient>
    <linearGradient id="linear-gradient1" x1="192.5328368" y1="87.3879087" x2="254.846033" y2="209.6844423" xlink:href="#linear-gradient">
      <animate attributeName="y1" values="87.3879;81.2731;87.3879;93.5027;87.3879" dur="8s" repeatCount="indefinite" calcMode="spline" keySplines="0.4 0 0.6 1;0.4 0 0.6 1;0.4 0 0.6 1;0.4 0 0.6 1"/>
      <animate attributeName="y2" values="209.6844;203.5696;209.6844;215.7993;209.6844" dur="8s" repeatCount="indefinite" calcMode="spline" keySplines="0.4 0 0.6 1;0.4 0 0.6 1;0.4 0 0.6 1;0.4 0 0.6 1"/>
    </linearGradient>
    <linearGradient id="linear-gradient2" x1="164.2515118" y1="174.2413533" x2="212.3193283" y2="174.2413533" gradientUnits="userSpaceOnUse">
      <stop offset=".1533333" stop-color="#fff"/>
      <stop offset=".2452618" stop-color="#d2d2d2"/>
      <stop offset=".4881137" stop-color="#626262"/>
      <stop offset=".6557401" stop-color="#1b1b1b"/>
      <stop offset=".7333333" stop-color="#000"/>
    </linearGradient>
    <mask id="mask" x="162.0443945" y="167.5561727" width="52.0233154" height="13.3703613" maskUnits="userSpaceOnUse">
      <polygon class="st0" points="214.06771 180.926534 207.6603003 167.5561727 168.4227515 167.5561727 162.0443945 180.926534 214.06771 180.926534"/>
    </mask>
    <linearGradient id="linear-gradient3" x1="162.4849004" y1="230.6866797" x2="234.2919327" y2="89.7574438" gradientUnits="userSpaceOnUse">
      <animate attributeName="y1" values="230.6867;223.6402;230.6867;237.7331;230.6867" dur="8s" repeatCount="indefinite" calcMode="spline" keySplines="0.4 0 0.6 1;0.4 0 0.6 1;0.4 0 0.6 1;0.4 0 0.6 1"/>
      <animate attributeName="y2" values="89.7574;82.7110;89.7574;96.8039;89.7574" dur="8s" repeatCount="indefinite" calcMode="spline" keySplines="0.4 0 0.6 1;0.4 0 0.6 1;0.4 0 0.6 1;0.4 0 0.6 1"/>
      <stop offset="0" stop-color="#017db9"/>
      <stop offset=".3566667" stop-color="#0ba8b4"/>
      <stop offset=".67" stop-color="#2fba82"/>
      <stop offset=".9033333" stop-color="#26a9af"/>
      <stop offset="1" stop-color="#6cc9cc"/>
    </linearGradient>
    <linearGradient id="linear-gradient4" x1="122.8616251" y1="210.4976125" x2="194.6686574" y2="69.5683767" xlink:href="#linear-gradient3">
      <animate attributeName="y1" values="210.4976;203.4512;210.4976;217.5441;210.4976" dur="8s" repeatCount="indefinite" calcMode="spline" keySplines="0.4 0 0.6 1;0.4 0 0.6 1;0.4 0 0.6 1;0.4 0 0.6 1"/>
      <animate attributeName="y2" values="69.5684;62.5219;69.5684;76.6148;69.5684" dur="8s" repeatCount="indefinite" calcMode="spline" keySplines="0.4 0 0.6 1;0.4 0 0.6 1;0.4 0 0.6 1;0.4 0 0.6 1"/>
    </linearGradient>
    <radialGradient id="New_Gradient_Swatch_1" data-name="New Gradient Swatch 1" cx="143.3522559" cy="197.279073" fx="143.3522559" fy="197.279073" r="5.84729" gradientUnits="userSpaceOnUse">
      <stop offset="0" stop-color="#fff"/>
      <stop offset=".1077057" stop-color="#fff" stop-opacity=".8658634"/>
      <stop offset=".4169974" stop-color="#fff" stop-opacity=".499626"/>
      <stop offset=".6680194" stop-color="#fff" stop-opacity=".2304428"/>
      <stop offset=".8481977" stop-color="#fff" stop-opacity=".0637252"/>
      <stop offset=".94" stop-color="#fff" stop-opacity="0"/>
    </radialGradient>
    <radialGradient id="New_Gradient_Swatch_11" data-name="New Gradient Swatch 1" cx="192.8124609" cy="88.9675496" fx="192.8124609" fy="88.9675496" r="5.847168" xlink:href="#New_Gradient_Swatch_1"/>
    <radialGradient id="New_Gradient_Swatch_12" data-name="New Gradient Swatch 1" cx="210.9657812" cy="109.1115926" fx="210.9657812" fy="109.1115926" r="5.847168" xlink:href="#New_Gradient_Swatch_1"/>
    <radialGradient id="New_Gradient_Swatch_13" data-name="New Gradient Swatch 1" cx="253.364707" cy="194.0383504" fx="253.364707" fy="194.0383504" r="5.8474121" xlink:href="#New_Gradient_Swatch_1"/>
    <linearGradient id="linear-gradient5" x1="703.8485937" y1="188.0998738" x2="703.8485937" y2="171.1916707" gradientUnits="userSpaceOnUse">
      <animate attributeName="y1" values="188.0999;187.2545;188.0999;188.9453;188.0999" dur="10s" repeatCount="indefinite" calcMode="spline" keySplines="0.4 0 0.6 1;0.4 0 0.6 1;0.4 0 0.6 1;0.4 0 0.6 1"/>
      <animate attributeName="y2" values="171.1917;170.3463;171.1917;172.0371;171.1917" dur="10s" repeatCount="indefinite" calcMode="spline" keySplines="0.4 0 0.6 1;0.4 0 0.6 1;0.4 0 0.6 1;0.4 0 0.6 1"/>
      <stop offset="0" stop-color="#1564a6"/>
      <stop offset="1" stop-color="#1560a1"/>
    </linearGradient>
    <linearGradient id="linear-gradient6" x1="805.9288889" y1="212.1271164" x2="805.9288889" y2="129.7783406" gradientUnits="userSpaceOnUse">
      <animate attributeName="y1" values="212.1271;208.0097;212.1271;216.2446;212.1271" dur="10s" repeatCount="indefinite" calcMode="spline" keySplines="0.4 0 0.6 1;0.4 0 0.6 1;0.4 0 0.6 1;0.4 0 0.6 1"/>
      <animate attributeName="y2" values="129.7783;125.6609;129.7783;133.8958;129.7783" dur="10s" repeatCount="indefinite" calcMode="spline" keySplines="0.4 0 0.6 1;0.4 0 0.6 1;0.4 0 0.6 1;0.4 0 0.6 1"/>
      <stop offset="0" stop-color="#30aeab"/>
      <stop offset="1" stop-color="#1794b0"/>
    </linearGradient>
    <linearGradient id="linear-gradient7" x1="859.3733333" y1="186.8957723" x2="859.3733333" y2="129.7783406" gradientUnits="userSpaceOnUse">
      <animate attributeName="y1" values="186.8958;184.0399;186.8958;189.7516;186.8958" dur="10s" repeatCount="indefinite" calcMode="spline" keySplines="0.4 0 0.6 1;0.4 0 0.6 1;0.4 0 0.6 1;0.4 0 0.6 1"/>
      <animate attributeName="y2" values="129.7783;126.9225;129.7783;132.6342;129.7783" dur="10s" repeatCount="indefinite" calcMode="spline" keySplines="0.4 0 0.6 1;0.4 0 0.6 1;0.4 0 0.6 1;0.4 0 0.6 1"/>
      <stop offset="0" stop-color="#37b6ab"/>
      <stop offset="1" stop-color="#30b2aa"/>
    </linearGradient>
    <linearGradient id="linear-gradient8" x1="746.7622256" y1="186.8957723" x2="746.7622256" y2="129.7783406" gradientUnits="userSpaceOnUse">
      <animate attributeName="y1" values="186.8958;184.0399;186.8958;189.7516;186.8958" dur="10s" repeatCount="indefinite" calcMode="spline" keySplines="0.4 0 0.6 1;0.4 0 0.6 1;0.4 0 0.6 1;0.4 0 0.6 1"/>
      <animate attributeName="y2" values="129.7783;126.9225;129.7783;132.6342;129.7783" dur="10s" repeatCount="indefinite" calcMode="spline" keySplines="0.4 0 0.6 1;0.4 0 0.6 1;0.4 0 0.6 1;0.4 0 0.6 1"/>
      <stop offset="0" stop-color="#0f90b0"/>
      <stop offset="1" stop-color="#135592"/>
    </linearGradient>
    <!-- ── Wire draw masks ──────────────────────────────────────────
         Each mask has a centerline path traced through the wire's geometry.
         SMIL <animate> drives stroke-dashoffset from 1→0 (hidden→drawn).
         Unlike CSS animations, SMIL reliably runs inside <defs>/<mask>.
         pathLength="1" normalises dash values; stroke-width="40" ensures
         generous coverage of the filled wire shapes + endpoint circles.
         Mask bounds cover the full circuit area to avoid clipping.
    ─────────────────────────────────────────────────────────────────── -->

    <!-- Wire 2 mask: solid (143,197) → hollow (174.6,105) — draws upward -->
    <mask id="wire-mask-2" maskUnits="userSpaceOnUse" x="80" y="60" width="200" height="200">
      <path fill="none" stroke="white" stroke-width="40" stroke-linecap="round" stroke-linejoin="round"
            pathLength="1" stroke-dasharray="1" stroke-dashoffset="1"
            d="M143.4,197.3 L143.1,188.8 L134.9,181.4 L144.1,164.2 L156.3,161.5 L167,141 L167,116 L174.6,105.3">
        <animate attributeName="stroke-dashoffset"
                 values="1;1;0;0;0" keyTimes="0;0.05;0.40;0.72;1"
                 dur="10s" begin="2s" repeatCount="indefinite"
                 calcMode="spline" keySplines="0 0 1 1; 0.25 0.1 0.25 1; 0 0 1 1; 0 0 1 1"/>
      </path>
    </mask>

    <!-- Wire 3 mask: solid (211,109) → hollow (242.6,206) — draws down-right -->
    <mask id="wire-mask-3" maskUnits="userSpaceOnUse" x="150" y="60" width="200" height="200">
      <path fill="none" stroke="white" stroke-width="40" stroke-linecap="round" stroke-linejoin="round"
            pathLength="1" stroke-dasharray="1" stroke-dashoffset="1"
            d="M211,109.1 L211.3,127.5 L207.4,133 L220.7,161.1 L233.8,167 L240.7,182.7 L233.4,191.8 L242.6,206">
        <animate attributeName="stroke-dashoffset"
                 values="1;1;0;0;0" keyTimes="0;0.05;0.40;0.72;1"
                 dur="10s" begin="4s" repeatCount="indefinite"
                 calcMode="spline" keySplines="0 0 1 1; 0.25 0.1 0.25 1; 0 0 1 1; 0 0 1 1"/>
      </path>
    </mask>

    <!-- Wire 4 mask: solid (192,89) → hollow (123.7,198) — draws down-left -->
    <mask id="wire-mask-4" maskUnits="userSpaceOnUse" x="80" y="60" width="200" height="200">
      <path fill="none" stroke="white" stroke-width="40" stroke-linecap="round" stroke-linejoin="round"
            pathLength="1" stroke-dasharray="1" stroke-dashoffset="1"
            d="M192.8,89 L170,89 L151.8,122.9 L158.8,139.2 L150.4,155.7 L136.7,155.7 L123.3,181.6 L123.3,195.4 L123.7,198.3">
        <animate attributeName="stroke-dashoffset"
                 values="1;1;0;0;0" keyTimes="0;0.05;0.40;0.72;1"
                 dur="10s" begin="6s" repeatCount="indefinite"
                 calcMode="spline" keySplines="0 0 1 1; 0.25 0.1 0.25 1; 0 0 1 1; 0 0 1 1"/>
      </path>
    </mask>

    <!-- Wire 5 mask: solid (254,191) → hollow (221,114.8) — draws up-left -->
    <mask id="wire-mask-5" maskUnits="userSpaceOnUse" x="170" y="60" width="200" height="200">
      <path fill="none" stroke="white" stroke-width="40" stroke-linecap="round" stroke-linejoin="round"
            pathLength="1" stroke-dasharray="1" stroke-dashoffset="1"
            d="M254,191.3 L253.7,183 L237.7,143.3 L229.2,135.2 L221,135.4 L221,114.8">
        <animate attributeName="stroke-dashoffset"
                 values="1;1;0;0;0" keyTimes="0;0.05;0.40;0.72;1"
                 dur="10s" begin="8s" repeatCount="indefinite"
                 calcMode="spline" keySplines="0 0 1 1; 0.25 0.1 0.25 1; 0 0 1 1; 0 0 1 1"/>
      </path>
    </mask>
  </defs>
  <g>
    <g>
      <polygon class="st13" points="168.4227515 167.5561727 162.0443945 180.926534 214.0741797 180.926534 207.6603613 167.5561727 168.4227515 167.5561727"/>
      <path class="st3" d="M264.5067969,180.9796956c-8.5856934-17.9456787-47.7371826-98.6203613-47.7371826-98.6203613l-.9420776-1.3792114-3.3588867-1.5739136-38.6557007,17.5199585s18.8525391,39.3626099,33.8474121,70.6300049l6.4138184,13.3703613c5.8106689,12.1087646,10.2421265,21.3289795,11.4039917,23.7103882,4.6778564,9.5877075,16.7124634,12.0720215,28.7061768,5.3545532,11.9936523-6.7175293,15.043457-19.1438599,10.3224487-29.0117798Z"/>
    </g>
    <g>
      <g class="st2">
        <polygon class="st10" points="214.06771 180.926534 207.6603003 167.5561727 168.4227515 167.5561727 162.0443945 180.926534 214.06771 180.926534"/>
      </g>
      <path class="st8" d="M216.7696143,82.3593343c-1.4254761-3.5047607-5.6773071-4.3809814-11.7233276-4.3809814h-31.8028564c-9.4376221,0-13.0366211,2.8770142-16.2537231,9.37854-11.588562,23.4194946-36.800293,75.677124-45.3859253,93.6228027-4.7210083,9.8679199-1.6712646,22.2942505,10.3224487,29.0117798,11.9936523,6.7174683,24.0119019,4.0384521,28.7061768-5.3545532,2.0615845-4.1251221,6.1973877-12.7570801,11.4119873-23.7103882l6.3783569-13.3703613h-.0220947c13.0089111-27.3886108,29.4436646-62.0687256,38.6230469-80.5900269,3.4050293-6.8703003,7.0588379-8.4036255,9.7459106-4.6068115Z"/>
    </g>
  </g>
  <g>
    <!-- Solid nodes — pulse in, then wire draws away from them toward hollow endpoint -->
    <g>
      <!-- Solid node: bottom-left (143, 197) — pulses, then wire-2 draws away toward hollow (174.5,105) -->
      <g class="node-anim" style="--d: 2s; transform-origin: 143.352px 197.279px;">
        <path class="st14" d="M143.3525,191.4319051c-3.2246094,0-5.8476562,2.6230469-5.8476562,5.8476562,0,3.2236328,2.6230469,5.8466797,5.8476562,5.8466797,3.2241211,0,5.847168-2.6230469,5.847168-5.8466797,0-3.2246094-2.6230469-5.8476562-5.847168-5.8476562Z"/>
      </g>
      <circle class="node-ping"   style="--d: 2s;" cx="143.352" cy="197.279" r="5.847"/>
      <circle class="node-ping-2" style="--d: 2s;" cx="143.352" cy="197.279" r="5.847"/>
      <!-- Solid node: top-center (192, 89) — pulses, then wire-4 draws away toward hollow (123.7,198) -->
      <g class="node-anim" style="--d: 6s; transform-origin: 192.812px 88.968px;">
        <circle class="st11" cx="192.8124609" cy="88.9675496" r="5.847168"/>
      </g>
      <circle class="node-ping"   style="--d: 6s;" cx="192.812" cy="88.968" r="5.847"/>
      <circle class="node-ping-2" style="--d: 6s;" cx="192.812" cy="88.968" r="5.847"/>
      <!-- Solid node: upper-right (210, 109) — pulses, then wire-3 draws away toward hollow (242.6,206) -->
      <g class="node-anim" style="--d: 4s; transform-origin: 210.966px 109.112px;">
        <circle class="st15" cx="210.9657812" cy="109.1115926" r="5.847168"/>
      </g>
      <circle class="node-ping"   style="--d: 4s;" cx="210.966" cy="109.112" r="5.847"/>
      <circle class="node-ping-2" style="--d: 4s;" cx="210.966" cy="109.112" r="5.847"/>
      <!-- Solid node: far-right (253, 194) — pulses, then wire-5 draws away toward hollow (221,114.8) -->
      <g class="node-anim" style="--d: 8s; transform-origin: 253.365px 194.038px;">
        <circle class="st5" cx="253.364707" cy="194.0383504" r="5.8474121"/>
      </g>
      <circle class="node-ping"   style="--d: 8s;" cx="253.365" cy="194.038" r="5.847"/>
      <circle class="node-ping-2" style="--d: 8s;" cx="253.365" cy="194.038" r="5.847"/>
    </g>
    <!-- Connection wires — solid node pulses, then wire draws away toward hollow endpoint -->
    <g>
      <!-- Wire 2: solid (143,197) draws upward to hollow (174.5,105) -->
      <g class="wire-anim" style="--d: 2s;" mask="url(#wire-mask-2)">
        <path class="st6" d="M174.5546484,102.3235066c-1.6386719,0-2.972168,1.3334961-2.972168,2.972168,0,.8187866.3330078,1.5612793.8706055,2.0994263l-5.871582,9.8219604v25.1396484l-10.4755859,19.7597656-12.2211914,2.5927734-9.5722656,17.9316406,8.4150391,7.4746094v4.3904419c-1.2696533.2863159-2.2226562,1.4186401-2.2226562,2.7736206,0,1.5693359,1.2773438,2.8466797,2.8476562,2.8466797,1.5698242,0,2.847168-1.2773438,2.847168-2.8466797,0-1.3549194-.9528809-2.4872437-2.222168-2.7735596v-4.9530029l-8.0986328-7.1933594,8.8349609-16.5488281,12.2231445-2.5927734,10.8945312-20.5507812v-25.1054688l5.6762085-9.4940186c.3268433.1239624.6772461.2000732,1.046936.2000732,1.6386719,0,2.972168-1.3334961,2.972168-2.972168s-1.3334961-2.972168-2.972168-2.972168ZM174.5546484,106.7678426c-.8115234,0-1.472168-.6606445-1.472168-1.472168s.6606445-1.472168,1.472168-1.472168,1.472168.6606445,1.472168,1.472168-.6606445,1.472168-1.472168,1.472168Z"/>
      </g>
      <!-- Wire 3: solid (211,109) draws down-right to hollow (242.6,206) -->
      <g class="wire-anim" style="--d: 4s;" mask="url(#wire-mask-3)">
        <path class="st6" d="M242.8137427,203.0506185l-8.9734497-11.2339478,7.2583008-9.0546875-7.1386719-16.1953125-13.1201172-5.9296875-13.0786133-27.5585938,3.8295898-5.4350586v-15.758667c1.2692871-.2863159,2.222168-1.4185791,2.222168-2.7730713,0-1.5698242-1.2773438-2.847168-2.847168-2.847168s-2.847168,1.2773438-2.847168,2.847168c0,1.3544922.9528809,2.4867554,2.222168,2.7730713v15.3621826l-4.0219727,5.7084961,13.4902344,28.4238281.0981445.2080078,13.1015625,5.9208984,6.6396484,15.0644531-7.4086914,9.2421875,9.1611328,11.4689941c-1.0444336.4611816-1.7773438,1.503418-1.7773438,2.7165527,0,1.6386719,1.3334961,2.9726562,2.972168,2.9726562s2.972168-1.3339844,2.972168-2.9726562c0-1.5640259-1.218689-2.8356934-2.7540894-2.949646ZM242.5956641,207.4729207c-.8115234,0-1.472168-.6601562-1.472168-1.4726562,0-.8115234.6606445-1.4716797,1.472168-1.4716797s1.472168.6601562,1.472168,1.4716797c0,.8125-.6606445,1.4726562-1.472168,1.4726562Z"/>
      </g>
      <!-- Wire 4: solid (192,89) draws down-left to hollow (123.7,198) -->
      <g class="wire-anim" style="--d: 6s;" mask="url(#wire-mask-4)">
        <path class="st6" d="M192.8124609,86.1203816c-1.3544922,0-2.4867554.9528809-2.7730713,2.222168h-20.6009521l-17.9780273,34.5205078,6.9643555,16.2998047-8.0644531,15.8422852h-13.7011719l-13.6328125,26.3994141v13.9702148c-1.3395386.2883301-2.3476562,1.4797974-2.3476562,2.9038086,0,1.6386719,1.3334961,2.9716797,2.9726562,2.9716797,1.6386719,0,2.972168-1.3330078,2.972168-2.9716797,0-1.4240112-1.0079956-2.6153564-2.347168-2.9037476v-13.6665649l13.1445312-25.453125h13.7060547l8.6767578-17.0463867-6.9614258-16.2929688,17.3549805-33.3232422h19.8421631c.2863159,1.2692871,1.4185791,2.222168,2.7730713,2.222168,1.5698242,0,2.847168-1.2773438,2.847168-2.847168s-1.2773438-2.847168-2.847168-2.847168ZM125.1234961,198.2785848c0,.8115234-.6606445,1.4716797-1.472168,1.4716797-.8120117,0-1.4726562-.6601562-1.4726562-1.4716797,0-.8125.6606445-1.4726562,1.4726562-1.4726562.8115234,0,1.472168.6601562,1.472168,1.4726562Z"/>
      </g>
      <!-- Wire 5: solid (254,191) draws up-left to hollow (221,114.8) -->
      <g class="wire-anim" style="--d: 8s;" mask="url(#wire-mask-5)">
        <path class="st6" d="M253.989707,191.2647908v-6.3660889l-15.9799805-34.1469727-8.1948242-3.8010864v-8.8082886c1.3391724-.288269,2.347168-1.4793091,2.347168-2.9033203,0-1.6386719-1.3334961-2.972168-2.972168-2.972168s-2.972168,1.3334961-2.972168,2.972168c0,1.4240112,1.0079956,2.6150513,2.347168,2.9033203v8.2284546l-6.9287109-3.2138062v-25.4272345c1.3391724-.2882806,2.347168-1.4793207,2.347168-2.9033319,0-1.6386719-1.3334961-2.972168-2.972168-2.972168s-2.972168,1.3334961-2.972168,2.972168c0,1.4240112,1.0079956,2.6150513,2.347168,2.9033319v26.2250861l16.684082,7.7392578,15.6694336,33.4819336v6.0887451c-1.2692871.2863159-2.222168,1.4186401-2.222168,2.7735596,0,1.5703125,1.2773438,2.8476562,2.847168,2.8476562s2.847168-1.2773438,2.847168-2.8476562c0-1.3549194-.9528809-2.4872437-2.222168-2.7735596ZM227.7177344,135.239034c0-.8115234.6606445-1.472168,1.472168-1.472168s1.472168.6606445,1.472168,1.472168-.6606445,1.472168-1.472168,1.472168-1.472168-.6606445-1.472168-1.472168ZM219.5390234,114.8264363c0-.8115234.6606445-1.472168,1.472168-1.472168s1.472168.6606445,1.472168,1.472168-.6606445,1.472168-1.472168,1.472168-1.472168-.6606445-1.472168-1.472168Z"/>
      </g>
    </g>

  </g>
  <g>
    <g>
      <path class="st1" d="M363.3134375,133.888448c-4.0043945-3.1850586-9.9130859-4.7998047-17.5610352-4.7998047-4.0541992,0-8.0048828.4506836-11.7416992,1.3393555-3.7358398.8891602-7.1010742,2.0688477-10.0019531,3.5053711l-.4433594.2197266,4.7446289,9.8417969.4350586-.1772461c2.6499023-1.0795898,5.3457031-2.034668,8.0131836-2.8393555,2.6435547-.7978516,5.4511719-1.2021484,8.3452148-1.2021484,3.1074219,0,5.5454102.7319336,7.246582,2.175293,1.6772461,1.4238281,2.527832,3.8173828,2.527832,7.1137695v2.3647461l-9.6855469.1948242c-9.0620117.3427734-15.9326172,1.9814453-20.4213867,4.8710938-4.5654297,2.9399414-6.8803711,7.4047852-6.8803711,13.269043,0,5.9785156,1.809082,10.4658203,5.3774414,13.3398537,3.534668,2.8476463,8.0429688,4.2910057,13.3999023,4.2910057,4.8828125,0,8.8144531-.7207031,11.6860352-2.1425781,2.7626953-1.3691406,5.4204102-3.5205078,7.9042969-6.3994141l2.6591797,7.5224609h10.4790039v-37.6171875c0-6.6542859-2.0463867-11.6577148-6.0830078-14.8706055ZM348.2563086,160.4758504l6.621582-.1894531v4.1757812c0,4.0322266-1.3183594,7.1074219-3.9179688,9.140625-2.637207,2.0605469-5.9541016,3.1054688-9.8579102,3.1054688-2.4804688,0-4.5131836-.5361328-6.0424805-1.59375-1.4921875-1.03125-2.2177734-2.7480469-2.2177734-5.2480469,0-2.7832031,1.0668945-4.9365234,3.2612305-6.5849609,2.2124023-1.6621094,6.3012695-2.6064453,12.1538086-2.8056641h-.0004883Z"/>
      <path class="st1" d="M394.9672461,109.2849324c-1.5571289-1.0371094-3.4516602-1.5625-5.6303711-1.5625-2.1806641,0-4.0751953.5258789-5.6308594,1.5625-1.6191406,1.0800781-2.4399414,2.9868164-2.4399414,5.6674805,0,2.6777344.8188477,4.6005859,2.4331055,5.7143555,1.5551758,1.0732422,3.4521484,1.6176758,5.6376953,1.6176758,2.1103516,0,3.9873047-.5429688,5.5786133-1.6147461,1.6533203-1.1137695,2.4916992-3.0371094,2.4916992-5.7172852,0-2.6791992-.8208008-4.5859375-2.4399414-5.6674805Z"/>
      <rect class="st1" x="382.0233984" y="130.1086629" width="14.6269531" height="56.2675781"/>
      <path class="st1" d="M451.0214453,133.888448c-4.0043945-3.1850586-9.9130859-4.7998047-17.5610352-4.7998047-4.0541992,0-8.0048828.4506836-11.7416992,1.3393555-3.7358398.8891602-7.1010742,2.0688477-10.0019531,3.5053711l-.4433594.2197266,4.7446289,9.8417969.4350586-.1772461c2.6499023-1.0795898,5.3457031-2.034668,8.0131836-2.8393555,2.6435547-.7978516,5.4511719-1.2021484,8.3452148-1.2021484,3.1074219,0,5.5454102.7319336,7.246582,2.175293,1.6772461,1.4238281,2.527832,3.8173828,2.527832,7.1137695v2.3647461l-9.6855469.1948242c-9.0620117.3427734-15.9326172,1.9814453-20.4213867,4.8710938-4.5654297,2.9399414-6.8803711,7.4047852-6.8803711,13.269043,0,5.9785156,1.809082,10.4658203,5.3774414,13.3398537,3.534668,2.8476463,8.0429688,4.2910057,13.3999023,4.2910057,4.8828125,0,8.8144531-.7207031,11.6860352-2.1425781,2.7626953-1.3691406,5.4204102-3.5205078,7.9042969-6.3994141l2.6591797,7.5224609h10.4790039v-37.6171875c0-6.6542859-2.0463867-11.6577148-6.0830078-14.8706055ZM435.9643164,160.4758504l6.621582-.1894531v4.1757812c0,4.0322266-1.3183594,7.1074219-3.9179688,9.140625-2.637207,2.0605469-5.9541016,3.1054688-9.8579102,3.1054688-2.4804688,0-4.5131836-.5361328-6.0424805-1.59375-1.4921875-1.03125-2.2177734-2.7480469-2.2177734-5.2480469,0-2.7832031,1.0668945-4.9365234,3.2612305-6.5849609,2.2124023-1.6621094,6.3012695-2.6064453,12.1538086-2.8056641h-.0004883Z"/>
      <path class="st1" d="M506.8329687,136.9460652c-2.1240234-2.5166016-4.6152344-4.4506836-7.4160156-5.7543945-2.9995117-1.3955078-6.4287109-2.1030273-10.1918945-2.1030273-7.3974609,0-13.2905273,2.65625-17.5151367,7.8955078-4.1992188,5.2070312-6.3286133,12.4716797-6.3286133,21.5922852,0,9.1904297,2.0927734,16.4375,6.2197266,21.5410156,4.1523438,5.1367188,9.9716797,7.7412109,17.296875,7.7412109,3.7617188,0,7.1889648-.6894531,10.1875-2.0498047,2.7143555-1.2314453,5.0776367-3.125,7.0385742-5.6347656-.0664062.6171875-.1210938,1.3251953-.1630859,2.1201172-.0732422,1.3681641-.1103516,2.5878906-.1103516,3.625v1.4394531c0,4.3632812-1.1435547,7.7197266-3.3984375,9.9765625-2.2553711,2.2558594-5.6044922,3.3994141-9.9550781,3.3994141-8.6796875,0-17.0302734-1.5185547-23.5141602-4.2763672l-.6958008-.2958984v11.7890625l.3203125.1240234c3.6928711,1.4238281,8.6489258,2.2705078,11.2744141,2.6494141,3.5688477.5146484,7.5195312.7753906,11.7426758.7753906,9.5336914,0,16.8188477-2.1162109,21.652832-6.2880859,4.8564453-4.1933594,7.3183594-10.4082031,7.3183594-18.4716797v-56.6235352h-13.7626953v6.8291016ZM503.2870703,144.8049519c2.2080078,2.7739258,3.3271484,7.4760742,3.3271484,13.9765625v1.8496094c0,5.8066406-1.1113281,9.9648438-3.3046875,12.3583984-2.1796875,2.3818359-5.6342773,3.5888672-10.2666016,3.5888672-4.2304688,0-7.3085938-1.4443359-9.4091797-4.4150391-2.1103516-2.9814453-3.1806641-7.484375-3.1806641-13.3818359,0-5.9667969,1.0712891-10.5395508,3.1835938-13.5917969,2.1025391-3.0371094,5.1079102-4.5131836,9.1884766-4.5131836,4.7617188,0,8.28125,1.3891602,10.4619141,4.128418Z"/>
      <path class="st1" d="M570.57125,132.1018269c-3.8769531-1.9995117-8.5390625-3.0131836-13.8564453-3.0131836-5.4658203,0-10.3125,1.1357422-14.4082031,3.3754883-4.1054688,2.246582-7.3574219,5.6098633-9.6650391,9.9951172-2.2988281,4.3686523-3.4638672,9.815918-3.4638672,16.1904297,0,6.3164062,1.2783203,11.6855469,3.7997964,15.9580078,2.5273521,4.2841797,6.0947349,7.5244141,10.6015708,9.6308594,4.4785156,2.0947266,9.6621094,3.1572266,15.4072266,3.1572266,4.3388672,0,8.1191406-.3125,11.2353516-.9277344,3.125-.6162109,6.1816406-1.5878906,9.0839844-2.8896484l.2958984-.1318359v-11.3818359l-.6972656.2988281c-3.1240234,1.3408203-6.2255859,2.3779297-9.2177734,3.0839844-2.9755859.7011719-6.3574219,1.0566406-10.0517578,1.0566406-4.8164062,0-8.6289062-1.3408203-11.3300781-3.9863281-2.6083984-2.5537109-4.0419922-6.1914062-4.2646484-10.8183594h38.6982422v-7.0258789c0-5.3623047-1.0576172-10.0063477-3.1435547-13.8027344-2.0957031-3.8095703-5.1308594-6.7597656-9.0234375-8.769043ZM544.3935156,151.7263387c.4101562-3.9399414,1.6699219-6.9599609,3.7470703-8.9819336,2.1650391-2.1049805,5.0498047-3.1723633,8.5742188-3.1723633,4.0009766,0,6.9804688,1.1889648,8.8564453,3.5336914,1.8144531,2.2729492,2.8076172,5.1708984,2.9570312,8.6206055h-24.1347656Z"/>
      <path class="st1" d="M623.5644141,129.0886434c-3.6767578,0-7.2041016.6816406-10.4853516,2.0258789-3.2304688,1.3222656-5.8232422,3.418457-7.7099609,6.2338867h-.0917969l-1.9199219-7.2397461h-11.2353516v56.2675781h14.4443359v-27.5224609c0-5.9296875.9804688-10.5419922,2.9140625-13.7089844,1.8837891-3.0888672,5.4736328-4.6552734,10.6699219-4.6552734,3.59375,0,6.2099609.9677734,7.7753906,2.8759766,1.5878906,1.9389648,2.3925781,4.9887695,2.3925781,9.0644531v33.9462891h14.4443359v-36.4956055c0-7.2539062-1.90625-12.5957031-5.6669922-15.8759766-3.7412109-3.262207-8.9667969-4.9160156-15.53125-4.9160156Z"/>
      <path class="st1" d="M674.0175391,116.1672566h-9.3701172l-5.7363281,13.0263672-8.3154297,3.0966797v8.5053711h8.7949219v28.2553711c0,4.7646484.8261719,8.5068359,2.4550781,11.1230469,1.6367188,2.6328125,3.9023438,4.5195312,6.7333984,5.6074219,2.7851562,1.0712891,5.9023438,1.6142578,9.2646484,1.6142578,2.5380859,0,5.0078125-.2265625,7.3398438-.671875,1.4140625-.2705078,2.7246094-.5927734,3.8945312-.9580078l.3505859-.1103516v-10.7509766l-.6201172.1533203c-.9570312.2373047-1.8320312.4296875-2.6757812.5888672-1.5859375.2988281-3.2099609.4501953-4.828125.4501953-2.1738281,0-3.9550781-.59375-5.2958984-1.7636719-1.3212891-1.1503906-1.9912109-2.9628906-1.9912109-5.3847656v-28.152832h16.078125v-10.6870117h-16.078125v-13.9414062Z"/>
    </g>
    <path class="st9" d="M710.0341406,173.0705769c-1.7412109-1.2470703-3.8408203-1.8789062-6.2392578-1.8789062-2.4033203,0-4.4853516.6328125-6.1904297,1.8818359-1.75,1.2851562-2.6376953,3.4960938-2.6376953,6.5722656,0,2.9404297.9033203,5.1162109,2.6855469,6.4658203,1.7402344,1.3193359,3.8066406,1.9882812,6.1425781,1.9882812,2.4042969,0,4.5078125-.6689453,6.25-1.9882812,1.7822266-1.3515625,2.6855469-3.5263672,2.6855469-6.4658203,0-3.078125-.9072266-5.2900391-2.6962891-6.5751953Z"/>
    <path class="st12" d="M776.3733333,129.7783406l21.9444444,56.2222493c-1.7962963,9.7037037-7.8703704,17.6296296-18.9074074,14.2222222v10.962963c10.2222222,2.4444444,24.5925926,1.4814815,32.5925926-19.7037037s23.4814815-61.7037308,23.4814815-61.7037308h-15.5555556l-13.6024472,39.7778049-13.7308861-39.7778049h-16.2222222Z"/>
    <polygon class="st7" points="837.7807407 129.7783406 837.7807407 140.5931826 864.8918519 140.5931826 836.8918519 177.4820715 836.8918519 186.8957723 881.8548148 186.8957723 881.8548148 175.8524418 853.8548148 175.8524418 881.8548148 138.00059 881.8548148 129.7783406 837.7807407 129.7783406"/>
    <polygon class="st4" points="756.6059746 157.482076 777.168439 129.7783406 758.9575034 129.7783406 746.7622256 147.6117146 734.5668877 129.7783406 716.3559522 129.7783406 736.9184767 157.482076 715.262229 186.8957723 733.4184904 186.8957723 746.7622256 167.1672566 760.1059608 186.8957723 778.2622222 186.8957723 756.6059746 157.482076"/>
  </g>
</svg>
