<?xml version="1.0" encoding="UTF-8" standalone="no"?>
<svg xmlns="http://www.w3.org/2000/svg" width="223.57779" height="227.83333" viewBox="0 0 223.5778 227.83333">
  <defs>
    <linearGradient id="lg0" x1="155.29379" y1="167.26686" x2="197.85381" y2="246.05421" gradientUnits="userSpaceOnUse">
      <stop offset="0" stop-color="#5252be"></stop>
      <stop offset="1" stop-color="#383892"></stop>
    </linearGradient>
    <linearGradient id="lg1" x1="263.76199" y1="111.29733" x2="188.44299" y2="204.09308" gradientUnits="userSpaceOnUse">
      <stop offset="0" stop-color="#787cff"></stop>
      <stop offset="1" stop-color="#6c74f1"></stop>
    </linearGradient>
    <linearGradient id="lg2" x1="141.93443" y1="52.544533" x2="239.77016" y2="132.4828" gradientUnits="userSpaceOnUse">
      <stop offset="0" stop-color="#6c74f1"></stop>
      <stop offset="1" stop-color="#3b3b96"></stop>
    </linearGradient>
    <linearGradient id="lg3" x1="66.016029" y1="97.781639" x2="128.51045" y2="279.68903" gradientUnits="userSpaceOnUse">
      <stop offset="0" stop-color="#4845b8"></stop>
      <stop offset=".49" stop-color="#302e8c"></stop>
      <stop offset="1" stop-color="#14124e"></stop>
    </linearGradient>
    <linearGradient id="lg4" x1="36.166676" y1="89.93013" x2="147.95557" y2="89.93013" gradientUnits="userSpaceOnUse">
      <stop offset="0" stop-color="#0a0a3a"></stop>
      <stop offset=".49" stop-color="#0c0c4a"></stop>
      <stop offset="1" stop-color="#0a0a3a"></stop>
    </linearGradient>
  </defs>
  <g transform="translate(-36.166659,-45.175329)">
    <polygon fill="url(#lg0)" points="246.02223,215.89755 147.95556,171.23088 147.95556,273.00866"></polygon>
    <polygon fill="url(#lg1)" points="256.80001,160.60125 249.02223,164.97162 246.02223,215.89755 147.95556,171.23088 259.74445,108.03644"></polygon>
    <polygon fill="url(#lg2)" points="259.74445,108.03644 212.60415,134.68493 147.95556,98.230884 147.95556,45.175329"></polygon>
  </g>
  <g transform="translate(-36.166659,-45.175329)">
    <polygon fill="url(#lg3)" points="46.888888,164.97165 49.888888,215.89756 147.95554,273.00864 147.95554,171.23087 36.166659,108.03641 39.111117,160.60123"></polygon>
    <polygon fill="url(#lg4)" points="36.166674,108.03644 83.306976,134.68493 147.95556,98.230884 147.95556,45.175329"></polygon>
  </g>
</svg>