<svg width="1024" height="768" xmlns="http://www.w3.org/2000/svg" viewBox="0 0 1024 768"><title>Tech-savvy professionals interested in AI tools - AI technology, software tools, innovation, collaboration</title><desc>The SVG hero concept should visually represent the cutting-edge nature of AI tools while emphasizing their practical applications in a professional setting. Key concepts: AI, tools, innovation, collaboration, technology. Anchors: AI-driven solutions, efficiency gains, data analysis, user-friendly interfaces.</desc>
  <defs>
    <linearGradient id="tech-blue" x1="0" y1="0" x2="1" y2="1">
      <stop offset="0%" stop-color="#0D4C8E" />
      <stop offset="100%" stop-color="#3B8ED0" />
    </linearGradient>
  </defs>
  <rect width="1024" height="768" fill="url(#tech-blue)" rx="50" ry="50" />
  <g transform="translate(50, 50)">
    <text x="0" y="30" font-size="48px" fill="#FFFFFF">AI Tools</text>
    <path d="M120 90 L200 90 A100 100 0 0 1 320 190 L520 190 A100 100 0 0 1 640 90 L720 90 A100 100 0 0 1 840 190 L920 190 A100 100 0 0 1 1000 90 Z" fill="url(#tech-blue)" stroke="#FFFFFF" stroke-width="4" />
    <text x="350" y="220" font-size="36px" fill="#FFFFFF">Innovation</text>
    <text x="750" y="220" font-size="36px" fill="#FFFFFF">Collaboration</text>
  </g>
  <g transform="translate(400, 300)">
    <rect x="100" y="100" width="200" height="200" fill="url(#tech-blue)" rx="15" ry="15" />
    <text x="160" y="130" font-size="24px" fill="#FFFFFF">Data Analysis</text>
  </g>
  <g transform="translate(700, 400)">
    <rect x="100" y="100" width="200" height="200" fill="url(#tech-blue)" rx="15" ry="15" />
    <text x="160" y="130" font-size="24px" fill="#FFFFFF">Efficiency Gains</text>
  </g>
</svg>