<svg width="1440" height="900" viewBox="0 0 1440 900" fill="none" xmlns="http://www.w3.org/2000/svg">
  <rect width="1440" height="900" fill="#07121F"/>
  <rect x="72" y="68" width="1296" height="764" rx="44" fill="#0A1627" stroke="rgba(255,255,255,0.12)"/>
  <circle cx="1086" cy="226" r="168" fill="#F9A24B" fill-opacity="0.28"/>
  <circle cx="1086" cy="226" r="252" stroke="#F9A24B" stroke-opacity="0.18"/>
  <path d="M160 688C332 492 516 388 724 348C936 308 1126 356 1280 476" stroke="#F9A24B" stroke-width="4" stroke-linecap="round"/>
  <path d="M160 736C386 590 566 520 742 492C930 462 1108 502 1252 580" stroke="#64F2C5" stroke-width="3" stroke-linecap="round" stroke-dasharray="12 14"/>
  <rect x="152" y="172" width="486" height="294" rx="30" fill="#0D1F35" stroke="rgba(139,219,255,0.18)"/>
  <text x="188" y="232" fill="#F9A24B" font-family="IBM Plex Sans, Arial, sans-serif" font-size="20" letter-spacing="5">AN AI TOOLS BRAND</text>
  <text x="188" y="318" fill="#F2F6FF" font-family="Georgia, serif" font-size="78">Signal the brand</text>
  <text x="188" y="396" fill="#F2F6FF" font-family="Georgia, serif" font-size="78">before the demo.</text>
  <text x="188" y="456" fill="rgba(242,246,255,0.72)" font-family="IBM Plex Sans, Arial, sans-serif" font-size="26">A hero concept with orbital motion, product gravity, and a clean visual ladder.</text>
  <rect x="188" y="560" width="236" height="64" rx="32" fill="#F9A24B"/>
  <text x="250" y="601" fill="#07121F" font-family="IBM Plex Sans, Arial, sans-serif" font-size="24" font-weight="700">See the system</text>
  <rect x="844" y="510" width="430" height="208" rx="28" fill="#0D1F35" stroke="rgba(100,242,197,0.18)"/>
  <text x="878" y="566" fill="rgba(242,246,255,0.64)" font-family="IBM Plex Sans, Arial, sans-serif" font-size="18" letter-spacing="4">PRIMARY PROOF</text>
  <text x="878" y="628" fill="#F2F6FF" font-family="Georgia, serif" font-size="44">an SVG hero concept for an AI tools brand</text>
  <text x="878" y="676" fill="rgba(242,246,255,0.72)" font-family="IBM Plex Sans, Arial, sans-serif" font-size="24">Make the primary artifact unmistakably about an AI tools brand while keeping the structure coherent enough to lead the stage.</text>
</svg>